<?xml version="1.0" encoding="utf-8"?>
<!-- Generator: Adobe Illustrator 16.0.0, SVG Export Plug-In . SVG Version: 6.00 Build 0)  -->
<!DOCTYPE svg PUBLIC "-//W3C//DTD SVG 1.1//EN" "http://www.w3.org/Graphics/SVG/1.1/DTD/svg11.dtd">
<svg version="1.1"
	 id="Layer_1" xmlns:rdf="http://www.w3.org/1999/02/22-rdf-syntax-ns#" xmlns:inkscape="http://www.inkscape.org/namespaces/inkscape" xmlns:sodipodi="http://sodipodi.sourceforge.net/DTD/sodipodi-0.dtd" xmlns:cc="http://creativecommons.org/ns#" xmlns:svg="http://www.w3.org/2000/svg" xmlns:dc="http://purl.org/dc/elements/1.1/"
	 xmlns="http://www.w3.org/2000/svg" xmlns:xlink="http://www.w3.org/1999/xlink" x="0px" y="0px" width="428.602px"
	 height="452.412px" viewBox="0 0 428.602 452.412" enable-background="new 0 0 428.602 452.412" xml:space="preserve">
<g transform="translate(0,-952.36218)">
	<path fill="#FFFFFF" d="M11.906,1250.001c-6.754-0.006-12.03,6.149-11.903,12.022v130.865c0.001,6.223,5.672,11.883,11.905,11.885
		h404.788c6.233-0.002,11.905-5.662,11.905-11.885v-130.865c0.09-6.278-5.613-12.022-11.904-12.022
		c-6.29,0-11.995,5.744-11.905,12.022v118.98H23.813v-118.981C23.959,1255.281,18.62,1250.005,11.906,1250.001L11.906,1250.001z"/>
	<path fill="#FFFFFF" d="M214.302,1321.432c-2.755,0-6.413-1.666-8.188-3.354l-101.2-95.243c-4.598-4.447-5.13-11.651-0.464-16.835
		c4.171-4.636,12.306-4.751,16.836-0.465l81.106,76.455V964.268c0-6.575,5.33-11.905,11.906-11.905
		c6.576,0,11.906,5.33,11.906,11.905v317.722l81.107-76.455c4.529-4.285,12.464-3.981,16.835,0.465
		c4.615,4.693,4.204,12.456-0.464,16.835l-101.199,95.243C219.741,1320.875,217.098,1321.387,214.302,1321.432L214.302,1321.432z"/>
</g>
</svg>
