<?xml version="1.0" encoding="utf-8"?>
<!-- Generator: Adobe Illustrator 16.0.0, SVG Export Plug-In . SVG Version: 6.00 Build 0)  -->
<!DOCTYPE svg PUBLIC "-//W3C//DTD SVG 1.1//EN" "http://www.w3.org/Graphics/SVG/1.1/DTD/svg11.dtd">
<svg version="1.1" id="Layer_1" xmlns="http://www.w3.org/2000/svg" xmlns:xlink="http://www.w3.org/1999/xlink" x="0px" y="0px"
	 width="100.93px" height="101.996px" viewBox="0 0 100.93 101.996" enable-background="new 0 0 100.93 101.996"
	 xml:space="preserve">
<g>
	<path fill="#2D66AB" d="M50.462,57.43c15.804,0,28.718-12.916,28.718-28.718C79.179,12.91,66.265,0,50.462,0
		C34.661,0,21.746,12.91,21.746,28.712C21.746,44.514,34.661,57.43,50.462,57.43z M50.462,6.792c12.064,0,21.92,9.856,21.92,21.92
		s-9.854,21.921-21.92,21.921c-12.063,0-21.916-9.856-21.916-21.921C28.546,16.648,38.399,6.792,50.462,6.792z"/>
	<path fill="#2D66AB" d="M50.462,51.531c-27.864,0-50.464,22.6-50.464,50.465h6.797c0-24.129,19.539-43.668,43.667-43.668
		s43.673,19.539,43.673,43.668h6.797C100.931,74.13,78.329,51.531,50.462,51.531z"/>
</g>
</svg>
