<?xml version="1.0" encoding="utf-8"?>
<!-- Generator: Adobe Illustrator 16.0.0, SVG Export Plug-In . SVG Version: 6.00 Build 0)  -->
<!DOCTYPE svg PUBLIC "-//W3C//DTD SVG 1.1//EN" "http://www.w3.org/Graphics/SVG/1.1/DTD/svg11.dtd">
<svg version="1.1" id="Layer_1" xmlns="http://www.w3.org/2000/svg" xmlns:xlink="http://www.w3.org/1999/xlink" x="0px" y="0px"
	 width="579.398px" height="341.906px" viewBox="0 0 579.398 341.906" enable-background="new 0 0 579.398 341.906"
	 xml:space="preserve">
<g>
	<g>
		<path fill="#009949" d="M546.3,341.906H331.321c-5.453,0-9.876-4.425-9.876-9.875c0-5.453,4.423-9.877,9.876-9.877H546.3
			c12.382,0,13.347-10.203,13.347-13.328V33.092c0-11.786-9.399-13.257-13.453-13.34H274.627c-11.793,0-13.263,9.395-13.347,13.436
			v170.465c0,5.452-4.424,9.875-9.876,9.875s-9.875-4.423-9.875-9.875V33.092C241.529,19.794,250.344,0,274.627,0h271.674
			c13.292,0,33.099,8.811,33.099,33.092V308.82C579.398,322.125,570.582,341.906,546.3,341.906z"/>
	</g>
	<g>
		<path fill="#009949" d="M239.005,341.895c-1.214,0-2.435-0.231-3.608-0.68c-3.778-1.494-6.267-5.131-6.267-9.197
			c0-46.336-31.676-87.262-77.023-99.506c-3.971-1.072-6.863-4.5-7.257-8.59c-0.393-4.102,1.805-8.013,5.5-9.811
			c20.323-9.912,32.949-29.775,32.949-51.844c0-31.99-26.413-58.016-58.868-58.016c-32.46,0-58.867,26.025-58.867,58.016
			c0,22.067,12.633,41.932,32.961,51.844c3.702,1.804,5.894,5.709,5.507,9.811c-0.388,4.096-3.286,7.523-7.258,8.59
			c-45.359,12.244-77.029,53.17-77.029,99.506c0,5.453-4.423,9.877-9.875,9.877c-5.453,0-9.87-4.424-9.87-9.877
			c0-48.426,28.941-91.869,72.428-111.656c-16.757-14.519-26.603-35.431-26.603-58.099c0-42.884,35.264-77.761,78.617-77.761
			c43.35,0,78.62,34.883,78.62,77.761c0,22.668-9.841,43.569-26.598,58.099c36.509,16.615,62.761,49.914,70.249,88.828
			L364.126,182.58c3.702-4.006,9.965-4.232,13.953-0.523c4,3.708,4.244,9.946,0.53,13.947L246.244,338.732
			C244.339,340.787,241.702,341.895,239.005,341.895z"/>
	</g>
</g>
</svg>
