<svg id="Layer_1" data-name="Layer 1" xmlns="http://www.w3.org/2000/svg" viewBox="0 0 96 76"><defs><style>.cls-1{fill:#ef476d;}.cls-2{fill:#f37f3c;}.cls-3{fill:#0f9b4d;}.cls-4{fill:#8f489c;}.cls-5{fill:#3f6dad;}</style></defs><title>abcde_logo</title><path class="cls-1" d="M24.88,44v4.51h1.5Zm0-17.64v6.7l5.74,16.41H36a15.64,15.64,0,0,0,3.83-.41,6.57,6.57,0,0,0,2.6-1.23c0.27-.27.55-0.41,0.82-0.68s0.14-.27.27-0.41c-0.14-.27-0.41-0.41-0.55-0.68l-0.82-1.23a12.9,12.9,0,0,1-1.37-3.15,10.67,10.67,0,0,1-.14-6.84,12,12,0,0,1,.68-2.05l0.82-1.64a7.59,7.59,0,0,1,.82-1.09c-0.14-.27-0.27-0.68-0.41-1a6.85,6.85,0,0,0-1-1.09,6.3,6.3,0,0,0-2.33-1.23A12,12,0,0,0,36,26.37H24.88ZM31.72,35V30.61h2.05a2.67,2.67,0,0,1,1.09.14,6.67,6.67,0,0,1,1,.41h0a3.63,3.63,0,0,1,.68.82,2.58,2.58,0,0,1,.27,1.09,3.22,3.22,0,0,1-.27,1.09,2.45,2.45,0,0,1-.68,1,2.2,2.2,0,0,1-1,.55,3.4,3.4,0,0,1-1.23.14H31.72V35Zm0,9.3V39.5H34a4.22,4.22,0,0,1,1.37.14,2.75,2.75,0,0,1,1.09.55,1.84,1.84,0,0,1,.82,1,4,4,0,0,1,.27,1.23,4,4,0,0,1-.27,1.23,1.84,1.84,0,0,1-.82,1h0a2.75,2.75,0,0,1-1.09.55,4.22,4.22,0,0,1-1.37.14H31.72v-1Z"/><path class="cls-2" d="M56.89,26.78h0c-0.55-.14-1-0.14-1.37-0.27H54.16a13.55,13.55,0,0,0-2.46.27,15,15,0,0,0-2.33.68,15,15,0,0,0-2.05,1.09,8.78,8.78,0,0,0-1.78,1.37A9.42,9.42,0,0,0,44,31.71a13.67,13.67,0,0,0-1.09,1.91,10.25,10.25,0,0,0-.68,2.19A13.48,13.48,0,0,0,42,38.14a11.66,11.66,0,0,0,.41,3.15A16.3,16.3,0,0,0,43.49,44a10.2,10.2,0,0,0,1.91,2.33A18.2,18.2,0,0,0,48,48.26h0a4.86,4.86,0,0,0,1.23.55h0c0.41,0.14,1,.27,1.5.41a7.06,7.06,0,0,0,1.5.27c0.55,0,1.09.14,1.64,0.14h1.37c0.41,0,.82-0.14,1.37-0.14h0.27v-6c-0.27.14-.55,0.14-0.82,0.27a5.61,5.61,0,0,1-1.5.14,5.67,5.67,0,0,1-2.19-.41,4.17,4.17,0,0,1-1.78-1.23,3.52,3.52,0,0,1-1.09-1.78,5.67,5.67,0,0,1-.41-2.19,6.39,6.39,0,0,1,.41-2.33A5.74,5.74,0,0,1,50.74,34a4.64,4.64,0,0,1,1.91-1.23A6.39,6.39,0,0,1,55,32.39a5.13,5.13,0,0,1,1.5.14c0.14,0,.41.14,0.55,0.14V26.78H56.89Zm2.05,18.33,0.14-2.87H58.94v2.87Z"/><path class="cls-3" d="M58.94,26.51V49.35h5.61a27.52,27.52,0,0,0,3.56-.14,15.38,15.38,0,0,0,2.74-.27q1.23-.21,2.05-0.41a8.37,8.37,0,0,0,1.64-.68h0a11.41,11.41,0,0,0,1.64-1.09V29a10.2,10.2,0,0,0-1.64-1h0a9.92,9.92,0,0,0-1.64-.68h0l-2.05-.41a15.15,15.15,0,0,0-2.6-.27c-1,0-1.91-.14-3.15-0.14H58.94Zm19.15,18.6a7.52,7.52,0,0,0,1-1.23,9.87,9.87,0,0,0,1.23-2.74,12.26,12.26,0,0,0,0-6.29A9.87,9.87,0,0,0,79,32.12a7.52,7.52,0,0,0-1-1.23V45.11Zm-8.48-1.64a9.32,9.32,0,0,1-2.87.27h-1V32.26h1.37a13.78,13.78,0,0,1,2.6.27,4.93,4.93,0,0,1,2.05,1.09A4.64,4.64,0,0,1,73,35.54a7.59,7.59,0,0,1,0,4.92,3.84,3.84,0,0,1-1.37,1.91,5.75,5.75,0,0,1-2.05,1.09h0Z"/><polygon class="cls-4" points="78.09 26.51 78.09 49.35 93 49.35 93 44.56 85.89 44.56 84.93 44.56 84.93 43.61 84.93 41.01 84.93 40.05 85.89 40.05 92.04 40.05 92.04 35.67 85.89 35.67 84.93 35.67 84.93 34.72 84.93 32.26 84.93 31.3 85.89 31.3 92.73 31.3 92.73 26.51 78.09 26.51"/><path class="cls-5" d="M11.21,26.51L3,49.35h7.39L10.93,47l0.27-.82h8.21l0.14,0.68,0.55,2.33h7.52L19.69,26.51H11.21Zm2.46,10.4L15,32.12h0.55L17,37.32c0.14,0.27.14,0.68,0.27,1h0L18,41.15l0.27,1.23H12.16l0.27-1.23,0.82-2.87h0c0.14-.55.27-1,0.41-1.37h0Z"/></svg>