<?xml version="1.0" encoding="utf-8"?>
<!-- Generator: Adobe Illustrator 18.1.0, SVG Export Plug-In . SVG Version: 6.00 Build 0)  -->
<!DOCTYPE svg PUBLIC "-//W3C//DTD SVG 1.1//EN" "http://www.w3.org/Graphics/SVG/1.1/DTD/svg11.dtd">
<svg version="1.1" id="Layer_1" xmlns="http://www.w3.org/2000/svg" xmlns:xlink="http://www.w3.org/1999/xlink" x="0px" y="0px"
	 viewBox="0 0 50 36" enable-background="new 0 0 50 36" xml:space="preserve" width="96px" height="76px">
<g>
	<rect x="14.2" y="0.5" fill="#0094D9" width="1.5" height="23.6"/>
	<path fill="#C51A7B" d="M1.6,18.5L1.4,17l0.8-0.1c2.7-0.3,4.8,0.2,6.2,1.5c2.1,1.9,2,4.8,2,4.9l0,0.7H8.9v-0.8
		c0-0.1,0.1-2.4-1.5-3.8c-1.1-1-2.8-1.4-5-1.1L1.6,18.5z"/>
	<path fill="#A078B4" d="M29.1,12.4l-0.7,0.2c-0.1,0-7.6,2.3-7.4,10.7l0,0.8h-1.5l0-0.7c-0.1-4.7,2-7.7,3.8-9.4
		c2-1.8,4.1-2.6,4.7-2.8l0.7-0.2L29.1,12.4z"/>
	<path fill="#399A80" d="M11.5,24.1l0-0.7c0,0-0.1-3.3-1.4-6.5c-1.7-4.3-4.7-6.7-8.7-7.1L0.6,9.7l0.2-1.5l0.8,0.1
		c4.6,0.5,8.1,3.2,10,8c1.4,3.5,1.5,6.9,1.5,7l0,0.8L11.5,24.1z"/>
	<path fill="#399A80" d="M16.8,24.1l0-0.7c0-0.5-0.3-13.4,3.4-17.3l0.5-0.5l1.1,1L21.4,7c-2.7,2.9-3.1,12.7-3,16.3l0,0.8L16.8,24.1z
		"/>
	<rect x="8.9" y="27.8" fill="#404041" width="1.5" height="7.6"/>
	<path fill="#404041" d="M17,34.6c-0.6,0.6-1.3,0.9-2.2,0.9c-0.8,0-1.5-0.3-2.1-0.8c-0.3-0.3-0.5-0.7-0.6-1.1
		c-0.1-0.4-0.1-1.1-0.1-1.9c0-0.8,0-1.5,0.1-1.9c0.1-0.4,0.3-0.8,0.6-1.1c0.6-0.6,1.3-0.8,2.1-0.8c1.8,0,2.7,1.1,2.9,2.4h-1.5
		c-0.2-0.7-0.6-1.1-1.4-1.1c-0.4,0-0.7,0.1-1,0.4c-0.3,0.4-0.4,0.6-0.4,2.1c0,1.5,0.1,1.8,0.4,2.1c0.2,0.3,0.6,0.4,1,0.4
		c0.4,0,0.8-0.1,1.1-0.4c0.2-0.3,0.4-0.6,0.4-1v-0.3h-1.4v-1.2h3v1.1C17.8,33.4,17.6,34.1,17,34.6"/>
	<polygon fill="#404041" points="23.8,35.4 20.7,30.8 20.7,35.4 19.2,35.4 19.2,27.8 20.5,27.8 23.6,32.5 23.6,27.8 25.2,27.8 
		25.2,35.4 	"/>
	<rect x="27" y="27.8" fill="#404041" width="1.5" height="7.6"/>
	<polygon fill="#404041" points="33.3,29.2 33.3,35.4 31.8,35.4 31.8,29.2 29.8,29.2 29.8,27.8 35.4,27.8 35.4,29.2 	"/>
	<path fill="#404041" d="M40,29.5L40,29.5c-0.2-0.2-0.6-0.4-1-0.4c-0.4,0-0.8,0.2-1,0.4c-0.3,0.3-0.4,0.7-0.4,2.1
		c0,1.5,0.1,1.8,0.4,2.1c0.2,0.2,0.6,0.4,1,0.4c0.4,0,0.8-0.2,1-0.4c0.3-0.3,0.4-0.7,0.4-2.1C40.4,30.2,40.3,29.8,40,29.5
		 M41.1,34.7c-0.5,0.5-1.2,0.8-2.1,0.8c-0.9,0-1.6-0.3-2.1-0.8c-0.8-0.8-0.8-1.7-0.8-3c0-1.3,0-2.3,0.8-3c0.5-0.5,1.2-0.8,2.1-0.8
		c0.9,0,1.6,0.3,2.1,0.8c0.8,0.8,0.8,1.7,0.8,3C41.9,33,41.9,33.9,41.1,34.7"/>
	<path fill="#404041" d="M46.4,29.2L46.4,29.2H45v2h1.4c0.7,0,1.1-0.4,1.1-1S47.1,29.2,46.4,29.2 M47.6,35.4l-1.5-3H45v3h-1.5v-7.6
		h3.1c1.6,0,2.5,1.1,2.5,2.3c0,1.1-0.7,1.7-1.4,2l1.7,3.3H47.6z"/>
</g>
</svg>
