<?xml version="1.0" encoding="utf-8"?>
<!-- Generator: Adobe Illustrator 18.1.0, SVG Export Plug-In . SVG Version: 6.00 Build 0)  -->
<!DOCTYPE svg PUBLIC "-//W3C//DTD SVG 1.1//EN" "http://www.w3.org/Graphics/SVG/1.1/DTD/svg11.dtd">
<svg version="1.1" xmlns="http://www.w3.org/2000/svg" xmlns:xlink="http://www.w3.org/1999/xlink" x="0px" y="0px"
	 viewBox="0 0 100 100" enable-background="new 0 0 100 100" xml:space="preserve" width="42px" height="42px">
<g id="Layer_1" display="none">
	<g display="inline">
		<rect x="22.5" y="78.6" fill="#FFFFFF" width="55.5" height="2.1"/>
		<rect x="27.1" y="63.5" fill="#FFFFFF" width="7.4" height="12.6"/>
		<rect x="40.5" y="55.8" fill="#FFFFFF" width="7.4" height="20.2"/>
		<rect x="53.3" y="49.4" fill="#FFFFFF" width="7.4" height="26.6"/>
		<rect x="65.5" y="39.3" fill="#FFFFFF" width="7.4" height="36.7"/>
		<path fill="#FFFFFF" d="M23.1,53.3c0.9,0.8,2.3,0.7,3-0.2l8.5-9.9l0,0c1.9,1.1,4,1.7,6.3,1.7c7.1,0,12.8-5.7,12.8-12.8
			c0-7.1-5.7-12.8-12.8-12.8c-7.1,0-12.8,5.7-12.8,12.8c0,3.2,1.2,6,3.1,8.2l-0.3-0.2l-8.5,9.8c-0.8,0.9-0.7,2.3,0.2,3L23.1,53.3z
			 M41,22.9c5.2,0,9.4,4.2,9.4,9.4c0,5.2-4.2,9.4-9.4,9.4c-5.2,0-9.4-4.2-9.4-9.4C31.6,27.1,35.8,22.9,41,22.9z"/>
		<path fill="#FFFFFF" d="M50,1C22.9,1,1,22.9,1,50c0,27.1,21.9,49,49,49s49-21.9,49-49C99,22.9,77.1,1,50,1z M50,94.4
			C25.5,94.4,5.6,74.5,5.6,50C5.6,25.5,25.5,5.6,50,5.6c24.5,0,44.4,19.9,44.4,44.4C94.4,74.5,74.5,94.4,50,94.4z"/>
	</g>
</g>
<g id="Layer_2" display="none">
	<g display="inline">
		<path fill="#FFFFFF" d="M63.4,55.9c2.8-3.2,4.5-7.4,4.5-12c0-0.2,0-0.3,0-0.5c0-0.2,0.1-0.3,0.1-0.5c0-10.1-8.2-18.4-18.4-18.4
			c-0.2,0-0.3,0-0.4,0c-0.2,0-0.3,0-0.4,0c-10.1,0-18.4,8.2-18.4,18.4c0,0.2,0,0.3,0,0.5c0,0.2-0.1,0.3-0.1,0.5
			c0,4.9,1.9,9.3,5,12.6C24.4,61.8,17,72.8,17,85.5c0,3.3,2.6,5.9,5.9,5.9c0.6,0,1.2-0.1,1.8-0.3c0,0,0-0.1,0-0.1
			C24.7,75.8,36,63.4,50,63.4c14,0,25.3,12.4,25.3,27.7c0,0,0,0.1,0,0.1c0.6,0.2,1.2,0.3,1.8,0.3c3.3,0,5.9-2.6,5.9-5.9
			C83,72.2,74.9,60.8,63.4,55.9z M49,54.8c-6,0-10.8-4.8-10.8-10.8c0-6,4.8-10.8,10.8-10.8c6,0,10.8,4.8,10.8,10.8
			C59.9,50,55,54.8,49,54.8z"/>
		<circle fill="none" stroke="#FFFFFF" stroke-miterlimit="10" cx="50" cy="50" r="49"/>
	</g>
</g>
<g id="Layer_3" display="none">
	<g display="inline">
		<path fill="#FFFFFF" d="M50,1C22.9,1,1,22.9,1,50c0,27.1,21.9,49,49,49s49-21.9,49-49C99,22.9,77.1,1,50,1z M50,94.4
			C25.5,94.4,5.6,74.5,5.6,50C5.6,25.5,25.5,5.6,50,5.6S94.4,25.5,94.4,50C94.4,74.5,74.5,94.4,50,94.4z"/>
		<path fill="#FFFFFF" d="M60,50c0-7.5,5.9-13.7,13.4-14.1V21.2c0-1.9-1.6-3.5-3.5-3.5H30.1c-1.9,0-3.5,1.6-3.5,3.5v57.6
			c0,1.9,1.6,3.5,3.5,3.5h39.9c1.9,0,3.5-1.6,3.5-3.5V64.1C66,63.7,60,57.5,60,50z M31.8,27.8h37.1v3H31.8V27.8z M31.8,38.1h26.8v3
			H31.8V38.1z M31.8,48.5h20.9v3H31.8V48.5z M31.8,58.9h26.8v3H31.8V58.9z M69.3,72.2H31.8v-3h37.6V72.2z"/>
		<path fill="#FFFFFF" d="M74.1,37.5c-6.9,0-12.5,5.6-12.5,12.5c0,6.9,5.6,12.5,12.5,12.5c6.9,0,12.5-5.6,12.5-12.5
			C86.5,43.1,80.9,37.5,74.1,37.5z M75.1,57.8h-2.6v-2.5h2.6V57.8z M78,48.9c-0.5,0.8-1.2,1.5-2,2.1c-0.4,0.4-0.7,0.7-0.8,1
			c-0.1,0.3-0.2,0.8-0.2,1.4h-2.6c0-1,0.1-1.7,0.3-2.2c0.2-0.4,0.7-1,1.5-1.6c0.6-0.5,1-1.1,1.3-1.5c0.3-0.5,0.5-1,0.5-1.6
			c0-0.7-0.2-1.2-0.6-1.6c-0.4-0.4-0.9-0.6-1.6-0.6c-0.6,0-1.1,0.2-1.5,0.5c-0.4,0.3-0.6,0.8-0.6,1.4h-2.5l0-0.1
			c0-1.3,0.4-2.2,1.3-2.9c0.9-0.7,2-1.1,3.4-1.1c1.5,0,2.6,0.4,3.5,1.1c0.8,0.8,1.2,1.8,1.2,3.2C78.7,47.3,78.5,48.2,78,48.9z"/>
	</g>
</g>
<g id="Layer_4" display="none">
	<g display="inline">
		<path fill="#FFFFFF" d="M50,1C22.9,1,1,22.9,1,50c0,27.1,21.9,49,49,49s49-21.9,49-49C99,22.9,77.1,1,50,1z M50,94.4
			C25.5,94.4,5.6,74.5,5.6,50C5.6,25.5,25.5,5.6,50,5.6c24.5,0,44.4,19.9,44.4,44.4C94.4,74.5,74.5,94.4,50,94.4z"/>
		<polygon fill="#FFFFFF" points="16.9,40.2 16.9,39.8 80.4,39.8 80.4,40.2 		"/>
		<polygon fill="#FFFFFF" points="16.9,29.7 16.9,29.3 80.4,29.3 80.4,29.7 		"/>
		<path fill="#FFFFFF" d="M75.1,48.1c-1.3,0-2.3,1-2.3,2.3c0,0.5,0.2,0.9,0.5,1.3L65,64c-0.1,0-0.3-0.1-0.4-0.1l-9.2-27.4
			c0.5-0.4,0.9-1,0.9-1.8c0-1.3-1-2.3-2.3-2.3c-1.3,0-2.3,1.1-2.3,2.3c0,0.7,0.3,1.3,0.8,1.7l-9,22.2c0,0,0,0-0.1,0
			c-0.3,0-0.7,0.1-1,0.2l-7.5-7.4c0.1-0.3,0.2-0.6,0.2-0.9c0-1.3-1-2.3-2.3-2.3c-1.3,0-2.3,1-2.3,2.3c0,0.6,0.2,1.1,0.6,1.6
			l-8.6,17.1c-0.1,0-0.1,0-0.2,0c-1.3,0-2.3,1-2.3,2.3c0,1.3,1,2.3,2.3,2.3c1.3,0,2.3-1,2.3-2.3c0-0.6-0.2-1.1-0.6-1.6l8.6-17.1
			c0.1,0,0.2,0,0.2,0c0.3,0,0.7-0.1,1-0.2l7.5,7.4C41.1,60.3,41,60.6,41,61c0,1.3,1,2.3,2.3,2.3c1.3,0,2.3-1,2.3-2.3
			c0-0.7-0.3-1.3-0.8-1.7l8.9-22.1L63,64.4c-0.5,0.4-0.9,1.1-0.9,1.8c0,1.3,1,2.3,2.3,2.3c1.3,0,2.3-1.1,2.3-2.3
			c0-0.5-0.2-0.9-0.5-1.3l8.2-12.2c0.2,0,0.3,0.1,0.5,0.1c1.3,0,2.3-1,2.3-2.3C77.4,49.2,76.4,48.1,75.1,48.1z M22.2,72.5
			c-0.6,0-1.1-0.5-1.1-1.1c0-0.6,0.5-1.1,1.1-1.1c0.6,0,1.1,0.5,1.1,1.1C23.3,72.1,22.8,72.5,22.2,72.5z M32.8,51.6
			c-0.6,0-1.1-0.5-1.1-1.1c0-0.6,0.5-1.1,1.1-1.1c0.6,0,1.1,0.5,1.1,1.1C33.9,51.1,33.4,51.6,32.8,51.6z M43.3,62.1
			c-0.6,0-1.1-0.5-1.1-1.1c0-0.6,0.5-1.1,1.1-1.1c0.6,0,1.1,0.5,1.1,1.1C44.4,61.6,43.9,62.1,43.3,62.1z M53.9,35.9
			c-0.6,0-1.1-0.5-1.1-1.1c0-0.6,0.5-1.1,1.1-1.1c0.6,0,1.1,0.5,1.1,1.1C55,35.4,54.5,35.9,53.9,35.9z M64.5,67.3
			c-0.6,0-1.1-0.5-1.1-1.1c0-0.6,0.5-1.1,1.1-1.1c0.6,0,1.1,0.5,1.1,1.1C65.6,66.8,65.1,67.3,64.5,67.3z M75.1,51.6
			c-0.6,0-1.1-0.5-1.1-1.1s0.5-1.1,1.1-1.1c0.6,0,1.1,0.5,1.1,1.1S75.7,51.6,75.1,51.6z"/>
		<path fill="#FFFFFF" d="M83.1,34.2c0-4.4-3.6-8-8-8c-4.4,0-8,3.6-8,8c0,3.8,2.7,7,6.3,7.8l1.7,4.4l1.7-4.4
			C80.4,41.2,83.1,38,83.1,34.2z"/>
		<path fill="#FFFFFF" d="M34.5,50.3c0,0.1,0,0.1,0,0.2c0,0.1,0,0.1,0,0.2h39.1c0-0.1,0-0.1,0-0.2c0-0.1,0-0.1,0-0.2L34.5,50.3
			L34.5,50.3z M16.9,50.3v0.5h14.2c0-0.1,0-0.1,0-0.2c0-0.1,0-0.1,0-0.2L16.9,50.3L16.9,50.3z M76.7,50.3c0,0.1,0,0.1,0,0.2
			c0,0.1,0,0.2,0,0.2h3.7v-0.5H76.7z"/>
		<path fill="#FFFFFF" d="M44.8,60.7c0,0.1,0,0.1,0,0.2c0,0.1,0,0.1,0,0.2h35.5v-0.4L44.8,60.7z M16.9,60.7v0.4h25
			c0-0.1,0-0.1,0-0.2c0-0.1,0-0.1,0-0.2L16.9,60.7z"/>
		<path fill="#FFFFFF" d="M23.6,71c0,0.1,0.1,0.3,0.1,0.5c0,0.2,0,0.3-0.1,0.4h56.7V71L23.6,71L23.6,71z M16.9,71v0.9h3.8
			c0-0.1-0.1-0.3-0.1-0.4c0-0.2,0-0.3,0.1-0.5L16.9,71L16.9,71z"/>
	</g>
</g>
<g id="Layer_5" display="none">
	<g display="inline">
		<path fill="#FFFFFF" d="M50,1C22.9,1,1,22.9,1,50c0,27.1,21.9,49,49,49s49-21.9,49-49C99,22.9,77.1,1,50,1z M50,94.4
			C25.5,94.4,5.6,74.5,5.6,50C5.6,25.5,25.5,5.6,50,5.6S94.4,25.5,94.4,50C94.4,74.5,74.5,94.4,50,94.4z"/>
		<polygon fill="#FFFFFF" points="51.1,79 51.1,59.9 49.1,59.9 49.1,78.9 44.7,72.6 42.2,72.6 49.5,82.7 50.5,82.7 58.7,72.6 
			56.2,72.6 		"/>
		<path fill="#FFFFFF" d="M50,17.3c-10.6,0-19.1,8.6-19.1,19.1c0,10.6,8.6,19.1,19.1,19.1S69.1,47,69.1,36.5
			C69.1,25.9,60.6,17.3,50,17.3z M51.9,49h-5v-4.2h5V49z M56.7,35.1c-0.8,1.2-1.9,2.2-3.2,3.1c-0.7,0.5-1.1,1.1-1.4,1.6
			C52,40.3,51.9,41,51.9,42H47c0-1.6,0.2-2.7,0.7-3.5c0.5-0.7,1.4-1.6,2.7-2.7c0.8-0.7,1.4-1.4,1.9-2.1c0.5-0.8,0.7-1.6,0.7-2.5
			c0-1-0.3-1.9-0.8-2.4c-0.6-0.6-1.3-0.9-2.4-0.9c-0.8,0-1.5,0.2-2.1,0.7c-0.6,0.5-0.9,1.2-0.9,2.2H42l0-0.1c0-2.2,0.7-3.8,2.2-5
			c1.5-1.2,3.4-1.7,5.7-1.7c2.5,0,4.5,0.6,6,1.9c1.4,1.3,2.2,3,2.2,5.2C58,32.5,57.6,33.9,56.7,35.1z"/>
	</g>
</g>
<g id="Layer_6" display="none">
	<g display="inline">
		<g>
			<path fill="#FC6E51" d="M48,91.6C25.9,90.6,8.3,72.4,8.3,50S25.9,9.4,48,8.4V1.1C21.9,2.1,1,23.6,1,50c0,26.4,20.9,47.9,47,48.9
				V91.6z"/>
			<path fill="#FC6E51" d="M52,1.1v7.3c22.1,1,39.8,19.2,39.8,41.6S74.1,90.6,52,91.6v7.3c26.1-1,47-22.5,47-48.9
				C99,23.6,78.1,2.1,52,1.1z"/>
		</g>
		<rect x="12.8" y="43.7" fill="#FC6E51" width="3.1" height="12.2"/>
		<rect x="82.8" y="43.7" fill="#FC6E51" width="3.1" height="12.2"/>
		<rect x="4.8" y="48.4" fill="#FC6E51" width="90.5" height="3.1"/>
		<g>
			<path fill="#FC6E51" d="M34,34c-3.1,0-5.6,1-7.4,3.1c-1.9,2.1-2.8,4.9-2.8,8.5v8.8c0,3.6,0.9,6.4,2.8,8.5C28.5,65,31,66,34.1,66
				c3.1,0,5.6-1,7.4-3.1c1.8-2.1,2.8-4.9,2.8-8.5v-8.8c0-3.6-0.9-6.4-2.8-8.5C39.6,35,37.1,34,34,34z M39,55.2
				c0,2.1-0.4,3.8-1.3,4.9c-0.9,1.2-2.1,1.8-3.7,1.8c-1.6,0-2.8-0.6-3.7-1.8c-0.9-1.2-1.3-2.8-1.3-4.9V44.8c0-2.1,0.4-3.7,1.3-4.9
				c0.9-1.2,2.1-1.8,3.7-1.8c1.6,0,2.8,0.6,3.7,1.8c0.9,1.2,1.3,2.8,1.3,4.9V55.2z"/>
			<polygon fill="#FC6E51" points="64.4,39.2 71,39.2 71,65.6 76.2,65.6 76.2,34 64.4,35.1 			"/>
		</g>
	</g>
</g>
<g id="Layer_7">
	<g>
		<g>
			<path fill="#FC6E51" d="M44.5,64.8c-1.1,0-2.2-0.4-3.1-1.3L23.9,46.3c-1.7-1.7-1.8-4.5-0.1-6.3c1.7-1.7,4.5-1.8,6.3-0.1
				l14.4,14.1L91.5,8.1c1.7-1.7,4.5-1.7,6.3,0.1c1.7,1.7,1.7,4.5-0.1,6.3l-50,49.1C46.8,64.4,45.7,64.8,44.5,64.8z"/>
		</g>
		<g>
			<path fill="#FC6E51" d="M43.8,93.2C20.2,93.2,1,74.3,1,51.1S20.2,9,43.8,9c5.8,0,11.4,1.1,16.6,3.3c2.3,0.9,3.3,3.5,2.4,5.8
				c-0.9,2.3-3.5,3.3-5.8,2.4c-4.2-1.7-8.7-2.6-13.3-2.6c-18.7,0-34,14.9-34,33.2s15.2,33.2,34,33.2s34-14.9,34-33.2
				c0-2.4,2-4.4,4.4-4.4c2.4,0,4.4,2,4.4,4.4C86.6,74.3,67.4,93.2,43.8,93.2z"/>
		</g>
	</g>
</g>
<g id="Layer_8" display="none">
	<g display="inline">
		<path fill="#FC6E51" d="M50,1C22.9,1,1,22.9,1,50c0,27.1,21.9,49,49,49c27.1,0,49-21.9,49-49C99,22.9,77.1,1,50,1z M50,89.2
			c-21.6,0-39.2-17.6-39.2-39.2c0-21.6,17.6-39.2,39.2-39.2S89.2,28.4,89.2,50C89.2,71.6,71.7,89.2,50,89.2z"/>
		<path fill="#FC6E51" d="M50,20.6c-16.2,0-29.4,13.2-29.4,29.4c0,16.2,13.2,29.4,29.4,29.4c16.2,0,29.4-13.2,29.4-29.4
			C79.4,33.8,66.2,20.6,50,20.6z M50,73.5C37,73.5,26.5,63,26.5,50C26.5,37,37,26.5,50,26.5C63,26.5,73.5,37,73.5,50
			C73.5,63,63,73.5,50,73.5z"/>
		<circle fill="#FC6E51" cx="50" cy="50" r="11.1"/>
		
			<rect x="40.1" y="73.1" transform="matrix(-0.7071 -0.7071 0.7071 -0.7071 72.3242 178.5515)" fill="#FC6E51" width="66.1" height="2.3"/>
		<rect x="83.6" y="84.7" fill="#FC6E51" width="13.9" height="2.3"/>
		<rect x="83.6" y="84.7" fill="#FC6E51" width="2.3" height="13.9"/>
		<rect x="87" y="89.3" fill="#FC6E51" width="2.3" height="9.3"/>
		<rect x="88.2" y="88.2" fill="#FC6E51" width="9.3" height="2.3"/>
		<rect x="90.5" y="92.8" fill="#FC6E51" width="2.3" height="5.8"/>
		<rect x="90.5" y="91.7" fill="#FC6E51" width="6.9" height="2.3"/>
	</g>
</g>
<g id="Layer_9" display="none">
	<g id="Your_Icon_1_" display="inline">
		<g>
			<path fill="#FC6E51" d="M72.6,35.1c-1.7-1.7-4.4-1.7-6.1,0L50,51.6l-10-10c-1.7-1.7-4.4-1.7-6.1,0c-1.7,1.7-1.7,4.4,0,6.1l13,13
				c0.8,0.8,2,1.3,3.1,1.3c1.1,0,2.2-0.4,3.1-1.3l19.5-19.5C74.3,39.6,74.3,36.8,72.6,35.1z"/>
			<path fill="#FC6E51" d="M82.8,29.8l5.7-5.7L82.3,18l-5.7,5.7c-7.3-5.9-16.5-9.4-26.6-9.4c-23.3,0-42.3,19-42.3,42.3
				S26.7,99,50,99s42.3-19,42.3-42.3C92.3,46.5,88.7,37.2,82.8,29.8z M50,90.3c-18.6,0-33.7-15.1-33.7-33.7S31.4,23,50,23
				s33.7,15.1,33.7,33.7S68.6,90.3,50,90.3z"/>
			<path fill="#FC6E51" d="M44.6,11.9h10.9c3,0,5.4-2.4,5.4-5.4S58.4,1,55.4,1H44.6c-3,0-5.4,2.4-5.4,5.4S41.6,11.9,44.6,11.9z"/>
		</g>
	</g>
</g>
</svg>
