<?xml version="1.0" encoding="utf-8"?>
<!-- Generator: Adobe Illustrator 18.1.0, SVG Export Plug-In . SVG Version: 6.00 Build 0)  -->
<!DOCTYPE svg PUBLIC "-//W3C//DTD SVG 1.1//EN" "http://www.w3.org/Graphics/SVG/1.1/DTD/svg11.dtd">
<svg version="1.1" xmlns="http://www.w3.org/2000/svg" xmlns:xlink="http://www.w3.org/1999/xlink" x="0px" y="0px"
	 viewBox="0 0 100 100" enable-background="new 0 0 100 100" xml:space="preserve" width="100px" height="100px">
<g id="Layer_1" display="none">
	<g display="inline">
		<rect x="22.5" y="78.6" fill="#FFFFFF" width="55.5" height="2.1"/>
		<rect x="27.1" y="63.5" fill="#FFFFFF" width="7.4" height="12.6"/>
		<rect x="40.5" y="55.8" fill="#FFFFFF" width="7.4" height="20.2"/>
		<rect x="53.3" y="49.4" fill="#FFFFFF" width="7.4" height="26.6"/>
		<rect x="65.5" y="39.3" fill="#FFFFFF" width="7.4" height="36.7"/>
		<path fill="#FFFFFF" d="M23.1,53.3c0.9,0.8,2.3,0.7,3-0.2l8.5-9.9l0,0c1.9,1.1,4,1.7,6.3,1.7c7.1,0,12.8-5.7,12.8-12.8
			c0-7.1-5.7-12.8-12.8-12.8c-7.1,0-12.8,5.7-12.8,12.8c0,3.2,1.2,6,3.1,8.2l-0.3-0.2l-8.5,9.8c-0.8,0.9-0.7,2.3,0.2,3L23.1,53.3z
			 M41,22.9c5.2,0,9.4,4.2,9.4,9.4c0,5.2-4.2,9.4-9.4,9.4c-5.2,0-9.4-4.2-9.4-9.4C31.6,27.1,35.8,22.9,41,22.9z"/>
		<path fill="#FFFFFF" d="M50,1C22.9,1,1,22.9,1,50c0,27.1,21.9,49,49,49s49-21.9,49-49C99,22.9,77.1,1,50,1z M50,94.4
			C25.5,94.4,5.6,74.5,5.6,50C5.6,25.5,25.5,5.6,50,5.6c24.5,0,44.4,19.9,44.4,44.4C94.4,74.5,74.5,94.4,50,94.4z"/>
	</g>
</g>
<g id="Layer_2" display="none">
	<g display="inline">
		<path fill="#FFFFFF" d="M63.4,55.9c2.8-3.2,4.5-7.4,4.5-12c0-0.2,0-0.3,0-0.5c0-0.2,0.1-0.3,0.1-0.5c0-10.1-8.2-18.4-18.4-18.4
			c-0.2,0-0.3,0-0.4,0c-0.2,0-0.3,0-0.4,0c-10.1,0-18.4,8.2-18.4,18.4c0,0.2,0,0.3,0,0.5c0,0.2-0.1,0.3-0.1,0.5
			c0,4.9,1.9,9.3,5,12.6C24.4,61.8,17,72.8,17,85.5c0,3.3,2.6,5.9,5.9,5.9c0.6,0,1.2-0.1,1.8-0.3c0,0,0-0.1,0-0.1
			C24.7,75.8,36,63.4,50,63.4c14,0,25.3,12.4,25.3,27.7c0,0,0,0.1,0,0.1c0.6,0.2,1.2,0.3,1.8,0.3c3.3,0,5.9-2.6,5.9-5.9
			C83,72.2,74.9,60.8,63.4,55.9z M49,54.8c-6,0-10.8-4.8-10.8-10.8c0-6,4.8-10.8,10.8-10.8c6,0,10.8,4.8,10.8,10.8
			C59.9,50,55,54.8,49,54.8z"/>
		<circle fill="none" stroke="#FFFFFF" stroke-miterlimit="10" cx="50" cy="50" r="49"/>
	</g>
</g>
<g id="Layer_3" display="none">
	<g display="inline">
		<path fill="#FFFFFF" d="M50,1C22.9,1,1,22.9,1,50c0,27.1,21.9,49,49,49s49-21.9,49-49C99,22.9,77.1,1,50,1z M50,94.4
			C25.5,94.4,5.6,74.5,5.6,50C5.6,25.5,25.5,5.6,50,5.6S94.4,25.5,94.4,50C94.4,74.5,74.5,94.4,50,94.4z"/>
		<path fill="#FFFFFF" d="M60,50c0-7.5,5.9-13.7,13.4-14.1V21.2c0-1.9-1.6-3.5-3.5-3.5H30.1c-1.9,0-3.5,1.6-3.5,3.5v57.6
			c0,1.9,1.6,3.5,3.5,3.5h39.9c1.9,0,3.5-1.6,3.5-3.5V64.1C66,63.7,60,57.5,60,50z M31.8,27.8h37.1v3H31.8V27.8z M31.8,38.1h26.8v3
			H31.8V38.1z M31.8,48.5h20.9v3H31.8V48.5z M31.8,58.9h26.8v3H31.8V58.9z M69.3,72.2H31.8v-3h37.6V72.2z"/>
		<path fill="#FFFFFF" d="M74.1,37.5c-6.9,0-12.5,5.6-12.5,12.5c0,6.9,5.6,12.5,12.5,12.5c6.9,0,12.5-5.6,12.5-12.5
			C86.5,43.1,80.9,37.5,74.1,37.5z M75.1,57.8h-2.6v-2.5h2.6V57.8z M78,48.9c-0.5,0.8-1.2,1.5-2,2.1c-0.4,0.4-0.7,0.7-0.8,1
			c-0.1,0.3-0.2,0.8-0.2,1.4h-2.6c0-1,0.1-1.7,0.3-2.2c0.2-0.4,0.7-1,1.5-1.6c0.6-0.5,1-1.1,1.3-1.5c0.3-0.5,0.5-1,0.5-1.6
			c0-0.7-0.2-1.2-0.6-1.6c-0.4-0.4-0.9-0.6-1.6-0.6c-0.6,0-1.1,0.2-1.5,0.5c-0.4,0.3-0.6,0.8-0.6,1.4h-2.5l0-0.1
			c0-1.3,0.4-2.2,1.3-2.9c0.9-0.7,2-1.1,3.4-1.1c1.5,0,2.6,0.4,3.5,1.1c0.8,0.8,1.2,1.8,1.2,3.2C78.7,47.3,78.5,48.2,78,48.9z"/>
	</g>
</g>
<g id="Layer_4">
	<g>
		<path fill="#FFFFFF" d="M50,1C22.9,1,1,22.9,1,50c0,27.1,21.9,49,49,49s49-21.9,49-49C99,22.9,77.1,1,50,1z M50,94.4
			C25.5,94.4,5.6,74.5,5.6,50C5.6,25.5,25.5,5.6,50,5.6c24.5,0,44.4,19.9,44.4,44.4C94.4,74.5,74.5,94.4,50,94.4z"/>
		<polygon fill="#FFFFFF" points="16.9,40.2 16.9,39.8 80.4,39.8 80.4,40.2 		"/>
		<polygon fill="#FFFFFF" points="16.9,29.7 16.9,29.3 80.4,29.3 80.4,29.7 		"/>
		<path fill="#FFFFFF" d="M75.1,48.1c-1.3,0-2.3,1-2.3,2.3c0,0.5,0.2,0.9,0.5,1.3L65,64c-0.1,0-0.3-0.1-0.4-0.1l-9.2-27.4
			c0.5-0.4,0.9-1,0.9-1.8c0-1.3-1-2.3-2.3-2.3c-1.3,0-2.3,1.1-2.3,2.3c0,0.7,0.3,1.3,0.8,1.7l-9,22.2c0,0,0,0-0.1,0
			c-0.3,0-0.7,0.1-1,0.2l-7.5-7.4c0.1-0.3,0.2-0.6,0.2-0.9c0-1.3-1-2.3-2.3-2.3c-1.3,0-2.3,1-2.3,2.3c0,0.6,0.2,1.1,0.6,1.6
			l-8.6,17.1c-0.1,0-0.1,0-0.2,0c-1.3,0-2.3,1-2.3,2.3c0,1.3,1,2.3,2.3,2.3c1.3,0,2.3-1,2.3-2.3c0-0.6-0.2-1.1-0.6-1.6l8.6-17.1
			c0.1,0,0.2,0,0.2,0c0.3,0,0.7-0.1,1-0.2l7.5,7.4C41.1,60.3,41,60.6,41,61c0,1.3,1,2.3,2.3,2.3c1.3,0,2.3-1,2.3-2.3
			c0-0.7-0.3-1.3-0.8-1.7l8.9-22.1L63,64.4c-0.5,0.4-0.9,1.1-0.9,1.8c0,1.3,1,2.3,2.3,2.3c1.3,0,2.3-1.1,2.3-2.3
			c0-0.5-0.2-0.9-0.5-1.3l8.2-12.2c0.2,0,0.3,0.1,0.5,0.1c1.3,0,2.3-1,2.3-2.3C77.4,49.2,76.4,48.1,75.1,48.1z M22.2,72.5
			c-0.6,0-1.1-0.5-1.1-1.1c0-0.6,0.5-1.1,1.1-1.1c0.6,0,1.1,0.5,1.1,1.1C23.3,72.1,22.8,72.5,22.2,72.5z M32.8,51.6
			c-0.6,0-1.1-0.5-1.1-1.1c0-0.6,0.5-1.1,1.1-1.1c0.6,0,1.1,0.5,1.1,1.1C33.9,51.1,33.4,51.6,32.8,51.6z M43.3,62.1
			c-0.6,0-1.1-0.5-1.1-1.1c0-0.6,0.5-1.1,1.1-1.1c0.6,0,1.1,0.5,1.1,1.1C44.4,61.6,43.9,62.1,43.3,62.1z M53.9,35.9
			c-0.6,0-1.1-0.5-1.1-1.1c0-0.6,0.5-1.1,1.1-1.1c0.6,0,1.1,0.5,1.1,1.1C55,35.4,54.5,35.9,53.9,35.9z M64.5,67.3
			c-0.6,0-1.1-0.5-1.1-1.1c0-0.6,0.5-1.1,1.1-1.1c0.6,0,1.1,0.5,1.1,1.1C65.6,66.8,65.1,67.3,64.5,67.3z M75.1,51.6
			c-0.6,0-1.1-0.5-1.1-1.1s0.5-1.1,1.1-1.1c0.6,0,1.1,0.5,1.1,1.1S75.7,51.6,75.1,51.6z"/>
		<path fill="#FFFFFF" d="M83.1,34.2c0-4.4-3.6-8-8-8c-4.4,0-8,3.6-8,8c0,3.8,2.7,7,6.3,7.8l1.7,4.4l1.7-4.4
			C80.4,41.2,83.1,38,83.1,34.2z"/>
		<path fill="#FFFFFF" d="M34.5,50.3c0,0.1,0,0.1,0,0.2c0,0.1,0,0.1,0,0.2h39.1c0-0.1,0-0.1,0-0.2c0-0.1,0-0.1,0-0.2L34.5,50.3
			L34.5,50.3z M16.9,50.3v0.5h14.2c0-0.1,0-0.1,0-0.2c0-0.1,0-0.1,0-0.2L16.9,50.3L16.9,50.3z M76.7,50.3c0,0.1,0,0.1,0,0.2
			c0,0.1,0,0.2,0,0.2h3.7v-0.5H76.7z"/>
		<path fill="#FFFFFF" d="M44.8,60.7c0,0.1,0,0.1,0,0.2c0,0.1,0,0.1,0,0.2h35.5v-0.4L44.8,60.7z M16.9,60.7v0.4h25
			c0-0.1,0-0.1,0-0.2c0-0.1,0-0.1,0-0.2L16.9,60.7z"/>
		<path fill="#FFFFFF" d="M23.6,71c0,0.1,0.1,0.3,0.1,0.5c0,0.2,0,0.3-0.1,0.4h56.7V71L23.6,71L23.6,71z M16.9,71v0.9h3.8
			c0-0.1-0.1-0.3-0.1-0.4c0-0.2,0-0.3,0.1-0.5L16.9,71L16.9,71z"/>
	</g>
</g>
</svg>
