<?xml version="1.0" encoding="utf-8"?>
<!-- Generator: Adobe Illustrator 18.1.0, SVG Export Plug-In . SVG Version: 6.00 Build 0)  -->
<!DOCTYPE svg PUBLIC "-//W3C//DTD SVG 1.1//EN" "http://www.w3.org/Graphics/SVG/1.1/DTD/svg11.dtd">
<svg version="1.1" xmlns="http://www.w3.org/2000/svg" xmlns:xlink="http://www.w3.org/1999/xlink" x="0px" y="0px"
	 viewBox="0 0 18 18" enable-background="new 0 0 18 18" xml:space="preserve"  width="20px" height="20px">
<g id="No">
	<circle fill="#A6A8AB" cx="9" cy="9" r="8.1"/>
	<g>
		<path fill="#FFFFFF" d="M11.3,11.7h-1l-2.6-4C7.7,7.6,7.6,7.5,7.6,7.4h0c0,0.1,0,0.4,0,0.7v3.5H6.7V6.3h1l2.5,3.9
			c0.1,0.2,0.2,0.3,0.2,0.3h0c0-0.1,0-0.4,0-0.7V6.3h0.9V11.7z"/>
	</g>
</g>
<g id="Yes" display="none">
	<circle display="inline" fill="#A0D468" cx="9" cy="9" r="8.1"/>
	<g display="inline">
		<path fill="#FFFFFF" d="M11.2,6.3L9.4,9.7v2H8.5V9.8L6.8,6.3h1l1.1,2.3c0,0,0.1,0.1,0.1,0.3h0c0-0.1,0.1-0.2,0.1-0.3l1.1-2.3H11.2
			z"/>
	</g>
</g>
<g id="Right" display="none">
	<g display="inline">
		<circle fill="#A0D468" cx="9" cy="9" r="8.1"/>
		<path fill="#FFFFFF" d="M8.2,10.9l3.5-4.2h1.2l-4.3,5H7.8l-2.6-2h1.2L8.2,10.9z"/>
	</g>
</g>
<g id="Wrong" display="none">
	<circle display="inline" fill="#FB6E52" cx="9" cy="9" r="8.1"/>
	<g display="inline">
		<path fill="#FFFFFF" d="M11.6,12h-1.2L9.2,9.8c0-0.1-0.1-0.2-0.1-0.3h0c0,0.1-0.1,0.2-0.1,0.3L7.6,12H6.4l2-3.1L6.6,6h1.2L8.9,8
			C9,8.1,9,8.3,9.1,8.4h0C9.2,8.2,9.2,8.1,9.3,8l1.1-2h1.1L9.7,9L11.6,12z"/>
	</g>
</g>
</svg>
