<?xml version="1.0" encoding="utf-8"?>
<!-- Generator: Adobe Illustrator 18.1.0, SVG Export Plug-In . SVG Version: 6.00 Build 0)  -->
<!DOCTYPE svg PUBLIC "-//W3C//DTD SVG 1.1//EN" "http://www.w3.org/Graphics/SVG/1.1/DTD/svg11.dtd">
<svg version="1.1" id="Layer_1" xmlns="http://www.w3.org/2000/svg" xmlns:xlink="http://www.w3.org/1999/xlink" x="0px" y="0px"
	 viewBox="0 0 100 100" enable-background="new 0 0 100 100" xml:space="preserve" width="100px" height="100px">
<g>
	<rect x="22.5" y="78.6" fill="#FFFFFF" width="55.5" height="2.1"/>
	<rect x="27.1" y="63.5" fill="#FFFFFF" width="7.4" height="12.6"/>
	<rect x="40.5" y="55.8" fill="#FFFFFF" width="7.4" height="20.2"/>
	<rect x="53.3" y="49.4" fill="#FFFFFF" width="7.4" height="26.6"/>
	<rect x="65.5" y="39.3" fill="#FFFFFF" width="7.4" height="36.7"/>
	<path fill="#FFFFFF" d="M23.1,53.3c0.9,0.8,2.3,0.7,3-0.2l8.5-9.9l0,0c1.9,1.1,4,1.7,6.3,1.7c7.1,0,12.8-5.7,12.8-12.8
		c0-7.1-5.7-12.8-12.8-12.8c-7.1,0-12.8,5.7-12.8,12.8c0,3.2,1.2,6,3.1,8.2l-0.3-0.2l-8.5,9.8c-0.8,0.9-0.7,2.3,0.2,3L23.1,53.3z
		 M41,22.9c5.2,0,9.4,4.2,9.4,9.4c0,5.2-4.2,9.4-9.4,9.4c-5.2,0-9.4-4.2-9.4-9.4C31.6,27.1,35.8,22.9,41,22.9z"/>
	<path fill="#FFFFFF" d="M50,1C22.9,1,1,22.9,1,50c0,27.1,21.9,49,49,49s49-21.9,49-49C99,22.9,77.1,1,50,1z M50,94.4
		C25.5,94.4,5.6,74.5,5.6,50C5.6,25.5,25.5,5.6,50,5.6c24.5,0,44.4,19.9,44.4,44.4C94.4,74.5,74.5,94.4,50,94.4z"/>
</g>
</svg>
