<?xml version="1.0" encoding="utf-8"?>
<!-- Generator: Adobe Illustrator 17.1.0, SVG Export Plug-In . SVG Version: 6.00 Build 0)  -->
<!DOCTYPE svg PUBLIC "-//W3C//DTD SVG 1.1//EN" "http://www.w3.org/Graphics/SVG/1.1/DTD/svg11.dtd">
<svg version="1.1" id="Layer_1" xmlns="http://www.w3.org/2000/svg" xmlns:xlink="http://www.w3.org/1999/xlink" x="0px" y="0px"
	 width="30px" height="60px" viewBox="0 0 30 60" enable-background="new 0 0 30 60" xml:space="preserve">
<path fill="#F26E53" stroke="#E8573F" stroke-miterlimit="10" d="M2.1,18.8L2.1,3.9c0-1.1,0.9-1.9,1.9-1.9L26,2
	c1.1,0,1.9,0.9,1.9,1.9l-0.1,14.9L2.1,18.8z"/>
<polygon fill="#A0CE69" stroke="#8BBF50" stroke-miterlimit="10" points="2.1,20.1 2,37 27.9,37.1 28,20.2 "/>
<path fill="#5BC1A7" stroke="#3BBA99" stroke-miterlimit="10" d="M2.1,38.4L2.1,53.3c0,1.1,0.9,1.9,1.9,1.9l8.1,0l2.8,2.8l2.8-2.8
	l8.3,0c1.1,0,1.9-0.9,1.9-1.9l0.1-14.9L2.1,38.4z"/>
</svg>
